<?xml version="1.0" encoding="UTF-8" standalone="no"?>
<!-- Created with Inkscape (http://www.inkscape.org/) -->

<svg
   width="28.996902mm"
   height="29.797567mm"
   viewBox="0 0 28.996902 29.797567"
   version="1.1"
   id="svg1"
   xml:space="preserve"
   xmlns="http://www.w3.org/2000/svg"
   xmlns:svg="http://www.w3.org/2000/svg"><defs
     id="defs1" /><g
     id="layer1"
     transform="translate(-91.792516,-126.90509)"><g
       id="g4"
       transform="matrix(2.6597649,0,0,2.6597649,-130.16856,-243.63206)"><g
         style="fill:currentColor"
         id="g3"
         transform="matrix(0.26458333,0,0,0.26458333,88.716286,144.77875)"><g
           id="g5"
           transform="matrix(1.9301929,0,0,1.9301929,-19.818496,-20.167632)"><g
             style="fill:currentColor"
             id="g2"
             transform="translate(-0.17978023,-0.28149948)"><path
               d="m 18.778,7.464 -4.95,4.95 a 2,2 0 0 1 -2.828,0 l -5.657,5.657 a 1,1 0 0 1 0,1.414 L 3.93,20.9 a 1,1 0 0 1 -1.414,0 L 1.1,19.485 a 1,1 0 0 1 0,-1.414 l 1.414,-1.414 a 1,1 0 0 1 1.414,0 L 9.586,11 a 2,2 0 0 1 0,-2.828 l 4.95,-4.95 z M 20.192,6.05 15.95,1.808 16.657,1.101 a 2,2 0 0 1 2.828,0 L 20.9,2.515 a 2,2 0 0 1 0,2.828 L 20.193,6.05 Z"
               id="path1" /></g><path
             d="M 17.324292,14.450767 12.758326,18.3441 7.0471663,11.647343 A 6.002,6.002 0 0 1 1.3574564,1.8926641 L 4.6012956,5.6947453 A 1.0002026,1.0002026 0 0 0 6.1239224,4.3973523 L 2.8793241,0.59220136 A 6.002,6.002 0 0 1 11.612294,7.7519354 Z m 1.297392,1.522626 0.648737,0.760815 a 3.0002543,3.0002543 0 0 1 -4.565966,3.893335 l -0.648657,-0.761812 z"
             id="path1-9" /></g></g></g></g></svg>
